<?xml version="1.0" standalone="no"?>
<!DOCTYPE svg PUBLIC "-//W3C//DTD SVG 20010904//EN"
 "http://www.w3.org/TR/2001/REC-SVG-20010904/DTD/svg10.dtd">
<svg version="1.0" xmlns="http://www.w3.org/2000/svg"
 width="512.000000pt" height="512.000000pt" viewBox="0 0 512.000000 512.000000"
 preserveAspectRatio="xMidYMid meet">
<metadata>
Created by potrace 1.11, written by Peter Selinger 2001-2013
</metadata>
<g transform="translate(0.000000,512.000000) scale(0.100000,-0.100000)"
fill="#000000" stroke="none">
<path d="M1590 4408 c0 -392 -3 -973 -7 -1290 l-6 -576 -86 -7 c-308 -22 -541
-88 -735 -209 -75 -47 -175 -131 -240 -203 -63 -70 -142 -208 -177 -309 -33
-96 -34 -103 -34 -259 0 -140 3 -170 23 -235 71 -227 231 -410 457 -520 142
-70 246 -93 415 -93 221 0 416 59 598 180 220 146 355 344 413 603 18 81 19
150 19 1468 0 760 3 1382 8 1382 4 0 448 -88 986 -197 l979 -198 -6 -725 c-4
-399 -7 -866 -7 -1037 l0 -313 -57 0 c-294 -1 -625 -105 -835 -263 -526 -396
-523 -1125 7 -1463 152 -97 306 -139 505 -138 341 1 623 142 837 419 37 49
105 182 127 250 48 151 46 78 46 1960 l0 1763 -67 16 c-38 8 -754 168 -1593
355 -839 188 -1535 343 -1547 346 l-23 5 0 -712z"/>
</g>
</svg>
