<svg xmlns="http://www.w3.org/2000/svg" xmlns:xlink="http://www.w3.org/1999/xlink" preserveAspectRatio="xMidYMid" width="12" height="9" viewBox="0 0 12 9">
  <defs>
    <style>
      .cls-1 {
        fill: #60558f;
        fill-rule: evenodd;
      }
    </style>
  </defs>
  <path d="M10.611,7.839 L9.838,7.067 C10.170,6.701 10.433,6.283 10.619,5.820 C10.827,5.306 10.931,4.761 10.931,4.197 C10.931,3.634 10.827,3.087 10.619,2.572 C10.433,2.111 10.170,1.691 9.838,1.326 L10.611,0.552 C11.472,1.502 12.000,2.785 12.000,4.197 C12.000,5.607 11.472,6.890 10.611,7.839 ZM9.268,6.495 L8.495,5.722 C8.869,5.307 9.073,4.769 9.073,4.197 C9.073,3.624 8.869,3.085 8.495,2.670 L9.268,1.898 C9.809,2.497 10.142,3.306 10.142,4.197 C10.142,5.087 9.809,5.896 9.268,6.495 ZM3.294,2.280 L7.247,-0.000 L7.247,8.999 L3.294,7.111 L3.294,2.280 ZM-0.000,6.421 L-0.000,2.971 C-0.000,2.589 0.294,2.280 0.658,2.280 L2.635,2.280 L2.635,7.111 L0.658,7.111 C0.294,7.111 -0.000,6.802 -0.000,6.421 Z" class="cls-1"/>
</svg>
