<svg width="16" height="16" viewBox="0 0 16 16" fill="none" xmlns="http://www.w3.org/2000/svg">
<path fill-rule="evenodd" clip-rule="evenodd" d="M15.897 6.72897H13.398C13.496 7.14497 13.547 7.573 13.547 8.008C13.547 8.757 13.4 9.48297 13.111 10.164C12.832 10.824 12.432 11.417 11.922 11.926C11.411 12.435 10.818 12.835 10.158 13.115C9.475 13.403 8.75 13.548 8 13.548C7.25 13.548 6.523 13.403 5.842 13.115C5.182 12.835 4.588 12.435 4.077 11.926C3.567 11.417 3.167 10.824 2.888 10.164C2.6 9.48297 2.453 8.757 2.453 8.008C2.453 7.259 2.6 6.53399 2.888 5.85199C3.167 5.19199 3.567 4.6 4.077 4.09C4.588 3.581 5.182 3.17997 5.842 2.90097C6.523 2.61297 7.25 2.46698 8 2.46698C8.75 2.46698 9.475 2.61297 10.158 2.90097C10.448 3.02397 10.725 3.17099 10.988 3.33899L9.423 4.90097H14.33V0L12.75 1.57797C11.422 0.595972 9.778 0.0159912 8 0.0159912C3.581 0.0159912 0 3.594 0 8.008C0 12.421 3.581 16 8 16C12.418 16 16 12.421 16 8.008C16 7.573 15.965 7.14597 15.897 6.72897Z" fill="white"/>
</svg>
