<svg xmlns="http://www.w3.org/2000/svg" xmlns:xlink="http://www.w3.org/1999/xlink" preserveAspectRatio="xMidYMid" width="12" height="12" viewBox="0 0 12 12">
  <defs>
    <style>
      .cls-1 {
        fill: #60558f;
        fill-rule: evenodd;
      }
    </style>
  </defs>
  <path d="M9.700,7.399 C9.047,7.399 8.458,7.672 8.039,8.109 L4.570,6.375 C4.589,6.254 4.600,6.129 4.600,6.000 C4.600,5.871 4.589,5.746 4.569,5.625 L8.039,3.891 C8.458,4.328 9.047,4.602 9.700,4.602 C10.970,4.602 12.000,3.570 12.000,2.301 C12.000,1.031 10.970,-0.000 9.700,-0.000 C8.430,-0.000 7.400,1.031 7.400,2.301 C7.400,2.430 7.411,2.551 7.430,2.676 L3.961,4.411 C3.542,3.973 2.953,3.699 2.300,3.699 C1.030,3.699 -0.000,4.731 -0.000,6.000 C-0.000,7.270 1.030,8.301 2.300,8.301 C2.953,8.301 3.542,8.027 3.961,7.590 L7.430,9.324 C7.411,9.450 7.400,9.574 7.400,9.699 C7.400,10.969 8.430,12.000 9.700,12.000 C10.970,12.000 12.000,10.969 12.000,9.699 C12.000,8.430 10.970,7.399 9.700,7.399 Z" class="cls-1"/>
</svg>
