<svg xmlns="http://www.w3.org/2000/svg" xmlns:xlink="http://www.w3.org/1999/xlink" preserveAspectRatio="xMidYMid" width="16" height="15" viewBox="0 0 16 15">
  <defs>
    <style>
      .cls-1 {
        fill: #fff;
        fill-rule: evenodd;
      }
    </style>
  </defs>
  <path d="M15.998,3.443 L12.529,6.884 L12.529,4.712 L9.572,4.712 L8.092,2.174 L12.529,2.174 L12.529,0.003 L15.998,3.443 ZM12.518,10.287 L12.518,8.116 L15.987,11.556 L12.518,14.997 L12.518,12.825 L8.726,12.825 L8.726,12.823 L8.723,12.825 L4.000,4.712 L0.002,4.712 L0.002,2.174 L5.472,2.174 L5.472,2.178 L5.477,2.174 L10.201,10.287 L12.518,10.287 ZM6.106,12.825 L0.002,12.825 L0.002,10.287 L4.625,10.287 L6.106,12.825 Z" class="cls-1"/>
</svg>
